<svg width="30" height="26" viewBox="0 0 30 26" fill="none" xmlns="http://www.w3.org/2000/svg">
<path d="M27.8571 10.716H6.42857L13.4786 3.66598C13.6794 3.46678 13.8388 3.22978 13.9476 2.96865C14.0564 2.70752 14.1124 2.42744 14.1124 2.14456C14.1124 1.86167 14.0564 1.58159 13.9476 1.32046C13.8388 1.05934 13.6794 0.822333 13.4786 0.623127C13.0771 0.224018 12.534 0 11.9679 0C11.4017 0 10.8586 0.224018 10.4571 0.623127L1.26429 9.83741C0.459455 10.6374 0.00478455 11.724 0 12.8588C0.0104284 13.9862 0.464667 15.0641 1.26429 15.8588L10.4571 25.0731C10.6569 25.2715 10.8939 25.4286 11.1544 25.5354C11.4149 25.6423 11.6939 25.6967 11.9754 25.6957C12.257 25.6948 12.5356 25.6383 12.7953 25.5296C13.0551 25.421 13.2909 25.2622 13.4893 25.0624C13.6877 24.8626 13.8448 24.6257 13.9516 24.3652C14.0584 24.1047 14.1129 23.8257 14.1119 23.5441C14.1109 23.2626 14.0545 22.984 13.9458 22.7242C13.8371 22.4645 13.6784 22.2287 13.4786 22.0303L6.42857 15.0017H27.8571C28.4255 15.0017 28.9705 14.7759 29.3724 14.3741C29.7742 13.9722 30 13.4272 30 12.8588C30 12.2905 29.7742 11.7455 29.3724 11.3436C28.9705 10.9417 28.4255 10.716 27.8571 10.716Z" fill="white"/>
</svg>
