<?xml version="1.0" standalone="no"?>
<!DOCTYPE svg PUBLIC "-//W3C//DTD SVG 20010904//EN"
 "http://www.w3.org/TR/2001/REC-SVG-20010904/DTD/svg10.dtd">
<svg version="1.0" xmlns="http://www.w3.org/2000/svg"
 width="844.000000pt" height="844.000000pt" viewBox="0 0 844.000000 844.000000"
 preserveAspectRatio="xMidYMid meet">
<metadata>
Created by potrace 1.14, written by Peter Selinger 2001-2017
</metadata>
<g transform="translate(0.000000,844.000000) scale(0.100000,-0.100000)"
fill="#000000" stroke="none">
<path d="M0 4220 l0 -4220 4220 0 4220 0 0 4220 0 4220 -4220 0 -4220 0 0
-4220z m5320 260 l0 -1440 520 0 520 0 0 -240 0 -240 -1620 0 -1620 0 0 1440
0 1440 -520 0 -520 0 0 240 0 240 1620 0 1620 0 0 -1440z"/>
<path d="M3720 4240 l0 -1200 500 0 500 0 0 1200 0 1200 -500 0 -500 0 0
-1200z"/>
</g>
</svg>
